<?xml version="1.0" encoding="UTF-8" standalone="no"?>
<svg
   xmlns:dc="http://purl.org/dc/elements/1.1/"
   xmlns:cc="http://creativecommons.org/ns#"
   xmlns:rdf="http://www.w3.org/1999/02/22-rdf-syntax-ns#"
   xmlns:svg="http://www.w3.org/2000/svg"
   xmlns="http://www.w3.org/2000/svg"
   viewBox="0 0 2666.6667 2666.6667"
   height="2666.6667"
   width="2666.6667"
   xml:space="preserve"
   id="svg2"
   version="1.1"><metadata
     id="metadata8"><rdf:RDF><cc:Work
         rdf:about=""><dc:format>image/svg+xml</dc:format><dc:type
           rdf:resource="http://purl.org/dc/dcmitype/StillImage" /></cc:Work></rdf:RDF></metadata><defs
     id="defs6"><clipPath
       id="clipPath18"
       clipPathUnits="userSpaceOnUse"><path
         id="path16"
         d="M 0,2000 H 2000 V 0 H 0 Z" /></clipPath></defs><g
     transform="matrix(1.3333333,0,0,-1.3333333,0,2666.6667)"
     id="g10"><g
       id="g12"><g
         clip-path="url(#clipPath18)"
         id="g14"><g
           transform="translate(727.3019,919.5924)"
           id="g20"><path
             id="path22"
             style="fill:#00dba4;fill-opacity:1;fill-rule:nonzero;stroke:none"
             d="m 0,0 -73.95,-88.138 -51.664,-61.56 v 251.073 h 62.203 C -69.194,78.113 -84.54,58.579 -105.051,47.243 V 2.39 c 49.556,17.093 85.284,64.234 85.284,119.548 v 20.563 H -166.74 V 39.147 c -37.143,9.227 -64.748,42.848 -64.748,82.791 0,47.038 38.273,85.285 85.311,85.285 v 41.126 c -69.709,0 -126.437,-56.702 -126.437,-126.411 0,-62.691 45.907,-114.895 105.874,-124.74 V -150.29 L -292.843,0 c -63.54,75.08 -58.399,186.455 11.746,255.392 74.67,74.284 195.323,74.284 269.992,0 C 58.861,186.275 63.693,74.926 0,0" /></g><g
           transform="translate(953.3434,1050.949)"
           id="g24"><path
             id="path26"
             style="fill:#267373;fill-opacity:1;fill-rule:nonzero;stroke:none"
             d="m 0,0 h 97.255 v -11.888 c 0,-18.369 -4.054,-34.624 -12.156,-48.76 -8.105,-14.141 -19.586,-25.082 -34.445,-32.823 -14.858,-7.746 -31.924,-11.618 -51.195,-11.618 -20.354,0 -38.271,4.053 -53.758,12.158 -15.492,8.105 -27.514,19.493 -36.066,34.172 -8.554,14.679 -12.83,31.651 -12.83,50.925 0,19.267 4.276,36.242 12.83,50.921 8.552,14.679 20.574,26.07 36.066,34.175 15.487,8.105 33.404,12.158 53.758,12.158 17.291,0 32.824,-2.93 46.601,-8.781 C 59.837,74.784 71.049,66.457 79.694,55.65 88.339,44.845 93.83,32.237 96.174,17.828 H 51.869 c -3.24,10.444 -9.502,18.685 -18.776,24.719 -9.276,6.034 -20.488,9.052 -33.634,9.052 -11.709,0 -22.061,-2.478 -31.065,-7.431 -9.009,-4.955 -15.987,-11.931 -20.937,-20.935 -4.956,-9.009 -7.428,-19.364 -7.428,-31.067 0,-11.709 2.472,-22.065 7.428,-31.068 4.95,-9.007 11.928,-15.985 20.937,-20.935 9.004,-4.956 19.356,-7.431 31.065,-7.431 10.808,0 20.352,1.798 28.636,5.403 8.284,3.601 14.676,8.733 19.183,15.398 4.497,6.663 6.753,14.318 6.753,22.963 l 6.483,-8.915 H 0 Z" /></g><g
           transform="translate(1269.6067,948.5622)"
           id="g28"><path
             id="path30"
             style="fill:#267373;fill-opacity:1;fill-rule:nonzero;stroke:none"
             d="m 0,0 h -51.328 l -34.849,56.731 c -1.804,3.061 -3.963,5.175 -6.484,6.349 -2.523,1.17 -6.036,1.756 -10.537,1.756 l 21.612,21.071 c 10.444,0.359 18.235,-0.586 23.37,-2.836 5.132,-2.253 9.86,-6.799 14.181,-13.644 z m -73.074,107.115 c 5.49,4.768 8.238,10.941 8.238,18.505 0,7.741 -2.702,13.954 -8.104,18.639 -5.403,4.683 -12.608,7.024 -21.612,7.024 h -35.119 V 0 h -43.224 v 189.105 h 78.343 c 14.406,0 27.15,-2.524 38.225,-7.565 11.078,-5.043 19.629,-12.156 25.666,-21.341 6.031,-9.186 9.049,-19.814 9.049,-31.879 0,-9.906 -2.432,-18.867 -7.294,-26.88 -4.862,-8.014 -11.257,-14.318 -19.179,-18.91 -7.929,-4.591 -16.392,-6.887 -25.396,-6.887 h -2.7 L -89.688,64.836 h -44.305 v 35.119 h 39.441 c 8.822,0 15.982,2.386 21.478,7.16" /></g><path
           id="path32"
           style="fill:#267373;fill-opacity:1;fill-rule:nonzero;stroke:none"
           d="m 1354.61,948.562 h -43.224 v 189.105 h 43.224 z" /><g
           transform="translate(1539.7621,993.4074)"
           id="g34"><path
             id="path36"
             style="fill:#267373;fill-opacity:1;fill-rule:nonzero;stroke:none"
             d="m 0,0 c 8.645,4.68 15.305,11.345 19.99,19.99 4.68,8.646 7.024,18.549 7.024,29.717 0,11.166 -2.344,21.072 -7.024,29.717 C 15.305,88.069 8.645,94.729 0,99.414 c -8.645,4.683 -18.553,7.024 -29.717,7.024 H -67.538 V -7.024 h 37.821 C -18.553,-7.024 -8.645,-4.685 0,0 m -110.762,144.259 h 81.045 c 19.809,0 37.281,-3.917 52.41,-11.751 C 37.819,124.673 49.525,113.598 57.812,99.28 66.093,84.962 70.238,68.435 70.238,49.707 70.238,30.974 66.093,14.452 57.812,0.134 49.525,-14.184 37.819,-25.259 22.693,-33.093 7.564,-40.928 -9.908,-44.845 -29.717,-44.845 h -81.045 z" /></g></g></g></g></svg>