<?xml version="1.0" encoding="UTF-8" standalone="no"?>
<svg
   xmlns:dc="http://purl.org/dc/elements/1.1/"
   xmlns:cc="http://creativecommons.org/ns#"
   xmlns:rdf="http://www.w3.org/1999/02/22-rdf-syntax-ns#"
   xmlns:svg="http://www.w3.org/2000/svg"
   xmlns="http://www.w3.org/2000/svg"
   viewBox="0 0 2666.6667 2666.6667"
   height="2666.6667"
   width="2666.6667"
   xml:space="preserve"
   id="svg2"
   version="1.1"><metadata
     id="metadata8"><rdf:RDF><cc:Work
         rdf:about=""><dc:format>image/svg+xml</dc:format><dc:type
           rdf:resource="http://purl.org/dc/dcmitype/StillImage" /></cc:Work></rdf:RDF></metadata><defs
     id="defs6"><clipPath
       id="clipPath18"
       clipPathUnits="userSpaceOnUse"><path
         id="path16"
         d="M 0,2000 H 2000 V 0 H 0 Z" /></clipPath></defs><g
     transform="matrix(1.3333333,0,0,-1.3333333,0,2666.6667)"
     id="g10"><g
       id="g12"><g
         clip-path="url(#clipPath18)"
         id="g14"><g
           transform="translate(1317.0198,825.736)"
           id="g20"><path
             id="path22"
             style="fill:#00dba4;fill-opacity:1;fill-rule:nonzero;stroke:none"
             d="m 0,0 -160.268,-191.018 -111.971,-133.417 v 544.142 h 134.811 c -12.534,-50.415 -45.792,-92.752 -90.245,-117.318 V 5.181 c 107.401,37.044 184.832,139.21 184.832,259.091 v 44.565 H -361.369 V 84.841 c -80.497,19.999 -140.325,92.863 -140.325,179.431 0,101.943 82.948,184.834 184.89,184.834 v 89.131 c -151.077,0 -274.02,-122.889 -274.02,-273.965 0,-135.868 99.491,-249.008 229.455,-270.344 V -325.716 L -634.666,0 c -137.708,162.719 -126.566,404.095 25.457,553.5 161.829,160.992 423.316,160.992 585.142,0 C 127.568,403.705 138.04,162.384 0,0" /></g></g></g></g></svg>